<?xml version="1.0" standalone="no"?>
<!DOCTYPE svg PUBLIC "-//W3C//DTD SVG 20010904//EN"
 "http://www.w3.org/TR/2001/REC-SVG-20010904/DTD/svg10.dtd">
<svg version="1.0" xmlns="http://www.w3.org/2000/svg"
 width="4167.000000pt" height="4167.000000pt" viewBox="0 0 4167.000000 4167.000000"
 preserveAspectRatio="xMidYMid meet">

<g transform="translate(0.000000,4167.000000) scale(0.100000,-0.100000)"
fill="#000000" stroke="none">
<path d="M20480 36913 c-2541 -78 -4984 -738 -7190 -1941 -1129 -616 -2171
-1359 -3153 -2250 -345 -313 -927 -908 -1258 -1287 -1874 -2144 -3144 -4743
-3673 -7515 -156 -819 -242 -1574 -277 -2450 -13 -319 -7 -1167 10 -1450 37
-594 89 -1095 167 -1600 32 -206 102 -607 112 -638 6 -19 403 410 3175 3433
l3167 3456 0 -1491 0 -1490 -537 -402 -536 -403 534 -5 534 -5 -100 -77 c-728
-560 -1771 -1345 -1774 -1335 -3 7 -48 226 -101 487 -64 311 -100 466 -104
450 -13 -52 -695 -3435 -692 -3437 1 -1 94 11 206 27 348 50 684 83 1056 105
l111 7 -74 361 c-40 199 -72 367 -71 373 2 10 482 -397 565 -479 l23 -22 -205
-114 c-113 -62 -205 -114 -205 -115 0 0 213 -1 473 -1 477 -1 673 -9 1072 -46
406 -37 608 -66 1375 -199 129 -23 368 -60 531 -83 l296 -42 -361 -103 c-198
-57 -660 -188 -1026 -291 l-665 -189 -2333 218 -2332 219 -233 -79 c-454 -154
-963 -357 -1239 -496 l-67 -34 26 -81 c186 -608 540 -1468 895 -2179 317 -634
578 -1088 963 -1671 932 -1411 2056 -2645 3365 -3694 2501 -2003 5502 -3201
8685 -3465 1075 -89 2175 -70 3245 56 2975 350 5783 1528 8130 3411 523 420
1010 863 1507 1373 1243 1276 2301 2824 3060 4480 85 184 195 442 191 446 -7
6 -436 87 -660 123 -662 110 -1298 173 -2028 202 -330 13 -1220 7 -1515 -10
-805 -48 -1433 -117 -2150 -237 -148 -25 -286 -48 -305 -51 -25 -3 -62 4 -120
25 -244 86 -5320 1913 -5387 1939 -12 4 214 8 515 9 295 0 665 6 822 13 1792
75 3485 317 4505 644 268 86 471 111 853 105 116 -2 212 -1 212 2 0 3 -268
494 -596 1090 l-595 1085 -85 420 c-46 231 -88 428 -92 438 -4 11 -22 -54 -46
-178 -22 -107 -41 -193 -44 -191 -2 3 -203 367 -446 810 l-442 806 -785 899
c-431 495 -787 900 -790 900 -3 1 124 -583 283 -1296 158 -714 288 -1305 288
-1314 0 -12 -3608 -3928 -3789 -4112 l-37 -38 -404 146 c-222 80 -405 147
-407 149 -2 1 -121 586 -265 1299 -145 713 -265 1297 -268 1297 -3 0 -106
-501 -229 -1113 -124 -611 -227 -1115 -230 -1119 -9 -10 -323 106 -332 123 -8
13 -279 1355 -684 3384 -81 402 -148 737 -151 747 -3 11 1487 1492 5143 5109
2831 2801 5373 5316 5649 5590 l500 497 -185 161 c-1058 912 -2144 1635 -3376
2246 -2059 1021 -4223 1568 -6555 1655 -235 9 -805 11 -1040 3z m895 -1042
c-29 -29 -1263 -848 -1895 -1258 -810 -526 -2119 -1354 -2432 -1540 -5 -2 -8
-2 -8 1 0 12 1369 919 2110 1398 744 480 2210 1406 2230 1408 2 0 0 -4 -5 -9z
m1905 -1541 c33 -24 54 -78 45 -119 -9 -41 -56 -82 -101 -88 -81 -10 -151 77
-120 151 30 72 116 99 176 56z m2374 -141 c84 -39 28 -162 -58 -129 -53 20
-54 103 -3 128 29 14 32 14 61 1z m-12333 -438 c21 -22 29 -39 29 -66 0 -48
-44 -95 -89 -95 -48 0 -93 46 -93 95 0 31 6 45 31 67 42 38 83 37 122 -1z
m6030 -1267 c76 -73 27 -194 -78 -194 -38 0 -50 5 -79 34 -105 105 50 263 157
160z m-5361 -1191 c725 -120 1288 -694 1389 -1418 15 -102 15 -356 1 -460 -55
-399 -268 -787 -573 -1044 -347 -291 -785 -433 -1220 -393 -414 38 -750 195
-1043 487 -149 148 -250 290 -333 465 -261 557 -198 1206 166 1705 80 110 259
287 373 367 361 257 811 362 1240 291z m9952 -1543 l3 -85 75 -5 c42 -3 74 -9
73 -15 -1 -5 -35 -14 -75 -20 l-73 -10 -3 -70 c-3 -85 -9 -118 -22 -110 -6 3
-10 23 -10 43 0 20 -3 60 -6 89 l-7 52 -66 6 c-36 4 -73 9 -81 11 -31 10 15
24 82 24 l66 0 7 88 c4 48 10 91 12 95 13 21 22 -15 25 -93z m-2477 -228 c-6
-5 -66 -47 -135 -94 -1431 -973 -3714 -2467 -5640 -3690 -1163 -738 -2458
-1543 -2420 -1505 23 23 205 146 1125 762 2014 1346 4539 2973 6395 4121 267
165 526 326 575 357 80 50 126 72 100 49z m4930 -1621 c-58 -52 -1848 -1238
-2865 -1898 -1420 -921 -3491 -2226 -3506 -2210 -12 12 1562 1062 2731 1820
1430 929 3591 2294 3635 2296 8 1 10 -2 5 -8z m-17075 -849 l5 -87 55 -3 c121
-5 131 -24 17 -32 l-72 -5 -3 -70 c-5 -142 -24 -152 -32 -17 l-5 87 -55 3
c-121 5 -131 24 -17 32 l72 5 3 70 c5 142 24 152 32 17z m2971 -3279 c13 -16
12 -17 -3 -4 -10 7 -18 15 -18 17 0 8 8 3 21 -13z m40 -50 c13 -16 12 -17 -3
-4 -10 7 -18 15 -18 17 0 8 8 3 21 -13z m40 -50 c13 -16 12 -17 -3 -4 -10 7
-18 15 -18 17 0 8 8 3 21 -13z m40 -50 c13 -16 12 -17 -3 -4 -10 7 -18 15 -18
17 0 8 8 3 21 -13z m44 -53 c10 -11 16 -20 13 -20 -3 0 -13 9 -23 20 -10 11
-16 20 -13 20 3 0 13 -9 23 -20z m40 -50 c10 -11 16 -20 13 -20 -3 0 -13 9
-23 20 -10 11 -16 20 -13 20 3 0 13 -9 23 -20z m40 -50 c10 -11 16 -20 13 -20
-3 0 -13 9 -23 20 -10 11 -16 20 -13 20 3 0 13 -9 23 -20z m40 -50 c10 -11 16
-20 13 -20 -3 0 -13 9 -23 20 -10 11 -16 20 -13 20 3 0 13 -9 23 -20z m40 -50
c10 -11 16 -20 13 -20 -3 0 -13 9 -23 20 -10 11 -16 20 -13 20 3 0 13 -9 23
-20z m40 -50 c10 -11 16 -20 13 -20 -3 0 -13 9 -23 20 -10 11 -16 20 -13 20 3
0 13 -9 23 -20z m40 -50 c10 -11 16 -20 13 -20 -3 0 -13 9 -23 20 -10 11 -16
20 -13 20 3 0 13 -9 23 -20z m984 -1222 c528 -656 1256 -1560 1617 -2008 361
-448 659 -821 661 -828 3 -7 3 -15 0 -18 -3 -3 -735 906 -1626 2020 -892 1114
-1619 2026 -1617 2026 3 0 437 -537 965 -1192z m4350 865 l1 -82 75 -3 c41 -2
76 -7 78 -13 1 -5 -33 -14 -75 -19 l-78 -8 -1 -77 c0 -78 -10 -123 -22 -104
-4 6 -10 49 -13 96 l-7 85 -71 7 c-39 4 -75 10 -80 12 -19 12 23 23 85 23 l66
0 6 91 c11 148 35 142 36 -8z m-10596 -244 c12 -7 25 -17 29 -23 13 -20 8 -69
-9 -88 -32 -36 -105 -16 -114 32 -6 29 11 67 33 78 30 14 35 14 61 1z m12672
-2065 c-114 -560 -208 -1033 -211 -1052 -7 -53 -294 -1465 -299 -1470 -2 -2
-75 35 -162 83 l-158 87 -622 -177 c-342 -97 -627 -174 -632 -170 -6 3 -11 18
-11 33 -1 15 -54 289 -119 609 l-118 582 1264 1252 c695 688 1266 1249 1269
1246 2 -2 -88 -462 -201 -1023z m-9066 -791 c-11 -15 -1125 -1328 -1149 -1356
-7 -8 -203 948 -198 965 3 8 1314 403 1352 407 5 1 2 -7 -5 -16z m6336 -1550
c-63 -313 -115 -572 -115 -575 0 -6 -80 -31 -85 -26 -2 2 -125 155 -274 342
-159 198 -271 347 -271 359 0 25 -5 30 95 -96 l78 -98 338 337 c187 186 341
335 344 332 3 -3 -47 -261 -110 -575z"/>
<path d="M32476 28820 c-4 -14 -114 -493 -246 -1065 -132 -572 -242 -1050
-245 -1062 l-5 -23 500 0 500 0 -500 -750 -500 -750 248 -2 248 -3 -574 -1065
c-316 -586 -576 -1073 -579 -1082 -5 -17 40 -18 820 -20 l825 -3 -1270 -1045
c-699 -574 -1278 -1050 -1287 -1057 -15 -12 -15 -13 1 -7 9 3 587 272 1285
599 697 326 1269 590 1271 586 2 -5 -701 -1833 -898 -2337 -7 -18 86 -124 696
-788 387 -422 704 -771 704 -776 0 -4 -214 -230 -475 -501 -261 -271 -473
-494 -472 -495 1 -2 72 -15 157 -29 883 -149 2319 -445 3490 -719 102 -24 188
-40 192 -37 10 8 97 327 168 614 230 924 378 1884 440 2853 l10 161 -2171
4259 c-1194 2343 -2206 4329 -2249 4414 -66 131 -79 151 -84 130z"/>
<path d="M38342 19700 c0 -14 2 -19 5 -12 2 6 2 18 0 25 -3 6 -5 1 -5 -13z"/>
<path d="M38333 19530 c0 -25 2 -35 4 -22 2 12 2 32 0 45 -2 12 -4 2 -4 -23z"/>
<path d="M38323 19380 c0 -36 2 -50 4 -32 2 17 2 47 0 65 -2 17 -4 3 -4 -33z"/>
<path d="M38307 19243 c-2 -21 -1 -45 4 -53 5 -10 9 4 9 38 0 61 -6 68 -13 15z"/>
<path d="M31311 19226 c-1 -4 -84 -420 -186 -924 -102 -503 -184 -916 -183
-917 2 -1 80 -10 173 -19 94 -10 262 -29 373 -42 112 -14 206 -23 210 -20 3 3
-65 356 -152 784 -173 859 -234 1151 -235 1138z"/>
<path d="M38296 19115 c-4 -19 -2 -43 3 -53 8 -13 10 -5 11 36 0 60 -5 67 -14
17z"/>
<path d="M38280 18986 c0 -19 5 -38 10 -41 6 -4 10 10 10 34 0 23 -4 41 -10
41 -5 0 -10 -15 -10 -34z"/>
<path d="M38266 18847 c-11 -109 -52 -415 -92 -672 -223 -1455 -650 -2918
-1247 -4280 -1278 -2916 -3337 -5433 -5950 -7274 -1487 -1048 -3173 -1873
-4912 -2406 -1271 -388 -2594 -631 -3920 -720 -413 -27 -672 -35 -1185 -35
-605 0 -951 13 -1463 56 -149 13 -191 13 -200 4 -10 -10 0 -11 43 -6 41 5 51
4 40 -5 -11 -8 0 -9 45 -5 45 5 56 3 45 -5 -11 -8 2 -9 50 -5 48 4 61 3 50 -5
-11 -8 2 -9 50 -5 48 4 61 3 50 -5 -11 -8 4 -9 55 -5 52 5 66 3 55 -5 -11 -8
4 -9 60 -5 55 4 71 3 60 -5 -11 -8 6 -9 65 -5 59 5 76 4 65 -5 -11 -8 7 -9 70
-5 62 5 81 3 70 -5 -11 -8 12 -9 85 -5 69 4 94 2 80 -4 -14 -7 17 -9 100 -6
81 4 114 2 100 -4 -13 -7 33 -9 140 -6 88 3 147 1 130 -2 -16 -4 204 -8 490
-8 286 0 509 3 495 8 -14 4 47 5 135 2 108 -3 153 -1 140 6 -14 6 17 8 95 4
84 -4 111 -3 100 5 -11 8 12 10 85 5 73 -4 96 -3 85 5 -11 8 7 10 70 5 62 -4
81 -3 70 5 -11 8 7 9 65 5 59 -4 76 -3 65 5 -11 8 3 10 54 5 51 -5 67 -4 62 4
-5 9 10 10 55 5 46 -5 60 -3 55 6 -6 8 7 10 50 5 42 -5 55 -4 50 5 -6 8 7 10
50 5 41 -5 55 -4 50 4 -5 8 8 9 45 5 37 -4 50 -3 45 5 -5 8 8 9 45 5 38 -4 50
-3 45 5 -5 9 6 10 40 5 34 -4 45 -3 40 5 -5 9 6 10 40 5 34 -4 45 -3 40 5 -5
9 6 10 40 5 34 -4 45 -3 40 5 -5 9 6 10 41 6 36 -4 44 -3 33 5 -11 8 -2 9 34
4 34 -4 47 -3 43 4 -5 8 7 9 35 6 27 -4 39 -3 35 5 -5 7 7 8 35 5 28 -4 39 -3
34 5 -4 7 5 9 30 5 25 -4 35 -3 31 4 -5 8 7 9 35 6 28 -4 39 -3 34 5 -4 7 5 9
30 5 25 -4 35 -3 31 4 -5 8 7 9 35 6 31 -3 39 -2 29 6 -11 7 -2 8 30 5 32 -4
40 -3 29 5 -11 8 -5 9 24 4 27 -4 37 -3 32 5 -4 7 5 9 30 5 26 -4 35 -3 30 5
-4 7 5 9 30 5 23 -4 35 -2 31 4 -4 5 6 8 25 5 20 -3 29 -1 24 6 -4 7 5 9 30 5
23 -4 35 -2 31 4 -4 5 6 8 25 5 20 -3 29 -1 24 6 -4 7 6 9 31 6 28 -4 34 -3
23 5 -11 8 -5 9 24 4 24 -4 37 -2 33 4 -4 5 6 8 25 5 18 -3 28 -1 25 5 -4 5 7
8 25 5 18 -3 28 -1 25 5 -4 5 7 8 25 5 18 -3 28 -1 25 5 -3 5 7 8 26 5 25 -3
29 -1 17 7 -11 8 -7 9 19 4 24 -4 32 -3 27 5 -5 8 2 10 25 5 20 -4 30 -2 26 4
-4 5 6 8 25 5 19 -3 28 -1 25 5 -4 6 4 8 20 5 15 -3 24 -1 20 5 -4 5 7 8 25 5
19 -3 28 -1 25 5 -4 6 4 8 20 5 15 -3 24 -1 20 5 -4 5 7 8 25 5 19 -3 28 -1
25 5 -4 6 4 8 20 5 16 -3 24 -1 20 5 -4 6 4 8 20 5 15 -3 24 -1 20 5 -4 5 7 8
25 5 19 -3 28 -1 25 5 -4 6 4 8 20 5 16 -3 24 -1 20 5 -4 6 4 8 20 5 16 -3 24
-1 20 5 -4 6 4 8 20 5 16 -3 24 -1 20 5 -4 6 4 8 20 5 16 -3 24 -1 20 5 -4 6
4 8 20 5 16 -3 24 -1 20 5 -4 6 4 8 20 5 16 -3 24 -1 20 5 -4 6 4 8 20 5 16
-3 24 -1 20 5 -4 6 4 8 20 5 16 -3 24 -1 20 5 -4 6 4 8 20 5 16 -3 24 -1 20 5
-4 6 4 8 20 5 19 -4 24 -2 18 8 -5 9 -4 11 4 6 14 -9 73 3 66 13 -2 5 7 6 22
3 16 -3 24 -1 20 5 -4 6 4 8 20 5 19 -4 24 -2 18 8 -5 8 -4 11 2 7 16 -10 74
4 66 16 -3 6 -1 7 6 3 17 -11 73 3 65 16 -4 7 -2 8 5 4 17 -11 73 3 65 16 -4
7 -2 8 5 4 17 -11 73 3 65 16 -4 7 -2 8 5 4 17 -11 73 3 65 16 -4 7 -2 8 4 4
14 -8 103 14 97 24 -3 5 5 6 17 2 16 -4 19 -2 13 8 -5 9 -4 11 4 6 15 -9 73 3
66 14 -3 4 5 6 17 2 13 -3 19 -1 15 5 -5 7 1 9 15 5 16 -4 19 -2 13 8 -5 9 -4
11 3 6 15 -9 133 24 127 34 -3 5 5 6 17 2 13 -3 19 -1 15 5 -5 7 1 9 15 5 13
-3 19 -1 15 5 -5 7 1 9 15 5 13 -3 19 -1 15 5 -5 7 1 9 15 5 13 -3 19 -1 15 5
-5 7 1 9 15 5 16 -4 19 -2 13 8 -5 9 -4 11 4 6 16 -10 112 25 104 37 -3 6 -1
7 6 3 13 -8 83 12 77 22 -7 12 35 14 485 18 l447 4 16 25 c9 14 14 30 11 36
-4 5 -1 8 7 7 7 -2 12 5 12 14 -1 10 3 16 10 15 6 -1 10 6 10 15 -1 10 2 16 6
13 11 -7 31 20 28 36 -2 7 3 13 10 14 16 0 63 55 57 65 -2 4 12 22 33 41 l37
34 -35 -40 c-24 -27 -15 -21 30 20 36 32 65 62 65 67 0 4 2 7 5 6 12 -4 50 24
47 34 -1 7 7 12 18 13 11 0 19 5 18 11 -1 6 3 11 10 11 19 0 142 84 139 95 -1
5 2 7 7 4 12 -8 143 68 134 78 -4 4 -1 5 7 2 18 -7 173 77 163 88 -4 4 1 4 11
0 13 -5 17 -4 12 4 -5 8 -1 10 10 5 13 -5 15 -3 9 7 -5 9 -4 11 4 6 14 -9 493
233 485 245 -3 5 1 7 8 4 18 -6 171 79 161 90 -5 4 -2 5 4 1 16 -9 224 105
216 118 -3 5 -1 6 5 2 15 -9 163 74 155 87 -3 6 -1 7 5 3 15 -9 73 24 65 37
-3 6 -1 7 5 4 14 -9 123 54 115 66 -3 6 -1 7 5 4 14 -9 123 54 115 66 -3 6 -1
7 5 3 15 -9 55 18 44 29 -4 5 -1 5 5 1 15 -9 86 37 75 49 -4 5 -1 5 5 1 16 -9
56 17 45 29 -4 5 -1 5 5 1 15 -9 86 37 75 49 -4 5 -1 5 5 1 15 -8 56 17 45 28
-4 4 -2 7 3 6 22 -5 36 1 29 12 -4 7 -3 8 4 4 13 -7 86 37 76 46 -3 3 3 5 13
4 10 0 17 5 15 12 -1 8 2 11 8 7 13 -8 82 39 72 50 -4 5 -2 5 4 2 12 -7 97 46
88 55 -3 3 3 5 13 4 10 0 17 4 16 10 -1 7 5 11 15 10 9 0 16 4 15 10 -1 7 5
11 15 10 9 0 16 4 15 10 -1 7 5 11 15 10 9 0 16 4 15 10 -1 7 5 11 15 10 9 0
16 4 15 10 -1 7 5 11 15 10 9 0 16 5 14 12 -1 8 1 11 6 8 10 -6 95 48 87 56
-3 2 1 5 8 5 19 0 68 34 62 43 -3 4 3 7 13 6 9 0 16 5 15 11 -2 7 0 12 5 12
21 -4 32 2 26 14 -4 6 -4 9 1 5 10 -9 47 10 40 21 -2 5 3 8 13 7 9 0 16 4 15
10 -1 6 4 11 10 11 20 0 67 34 61 44 -3 5 -2 9 3 8 22 -4 34 2 27 14 -4 6 -4
9 1 5 12 -11 47 11 39 25 -4 7 -4 9 1 5 11 -10 47 11 40 23 -4 5 -3 9 2 8 22
-4 34 2 27 14 -4 6 -4 9 1 5 12 -11 47 11 39 25 -4 7 -4 9 1 5 11 -11 47 11
39 24 -4 6 -3 8 3 5 6 -4 52 25 103 63 91 68 119 91 91 75 -10 -6 -12 -4 -7 4
5 7 10 10 13 7 10 -10 44 15 37 27 -4 7 -4 9 1 5 11 -11 47 11 39 24 -4 6 -3
8 2 5 12 -7 39 9 39 23 0 5 5 10 10 11 22 2 45 21 39 31 -4 6 -3 8 2 5 12 -7
39 9 39 23 0 5 2 9 5 8 10 -3 50 23 47 31 -1 5 0 9 3 8 14 -2 50 25 45 34 -4
5 -3 8 2 7 16 -5 54 23 47 35 -4 7 -4 9 1 5 10 -9 50 18 50 34 0 6 9 12 19 14
10 1 26 10 35 20 13 14 13 15 1 9 -9 -5 -12 -4 -7 1 5 5 12 9 15 9 17 1 52 27
49 36 -1 6 6 13 17 14 22 4 41 21 41 37 0 6 8 12 19 14 22 3 41 20 41 36 0 6
8 12 19 14 21 3 41 20 41 34 0 6 2 9 5 8 9 -5 70 43 67 52 -1 4 3 9 8 10 20 4
65 42 62 53 -1 6 3 11 10 12 19 0 73 45 70 57 -1 7 3 12 10 13 18 0 74 45 68
55 -5 8 12 25 27 25 13 0 70 47 64 52 -8 8 14 34 24 28 30 -19 1234 1185 1215
1215 -6 10 20 32 28 24 6 -6 50 49 49 63 -1 13 20 33 29 28 9 -6 54 50 54 68
1 7 6 11 13 10 12 -3 57 51 57 70 1 7 6 11 12 10 11 -2 46 38 54 62 2 6 7 9
11 8 7 -3 42 42 49 62 2 6 7 9 11 8 9 -3 29 23 33 44 1 10 7 17 13 16 13 -3
33 21 37 44 1 10 7 17 13 16 13 -3 33 21 37 44 1 10 8 17 14 16 9 -3 35 32 36
49 0 3 4 10 9 15 5 5 6 2 1 -7 -6 -12 -5 -12 9 1 10 9 19 25 20 35 2 10 8 19
14 19 16 0 43 40 34 50 -4 5 -2 5 5 1 12 -7 40 31 35 47 -1 5 2 6 7 2 9 -5 23
12 33 40 1 6 6 9 10 8 8 -3 25 25 27 42 1 6 6 10 11 10 14 0 30 27 23 39 -3 5
-1 6 5 2 10 -6 38 31 34 44 -1 3 3 5 8 5 14 0 30 27 23 39 -3 5 -1 6 5 2 13
-8 35 28 24 39 -4 5 -2 5 5 1 10 -6 41 33 34 42 -2 2 1 7 5 10 4 4 4 0 -1 -8
-15 -28 5 -4 75 90 38 51 67 97 63 103 -3 6 -1 7 5 3 13 -8 35 28 24 39 -4 5
-2 5 5 1 14 -8 36 27 25 39 -4 5 -1 5 6 1 11 -7 17 5 13 27 -1 5 3 6 8 2 12
-7 33 29 23 40 -4 5 -2 5 5 1 14 -8 36 27 25 39 -4 5 -1 5 6 1 11 -7 17 5 13
27 -1 5 3 6 8 3 10 -6 44 41 44 61 0 6 5 11 11 10 6 -1 10 6 10 15 -1 10 2 15
7 13 11 -7 30 30 21 40 -4 5 -1 5 6 1 11 -6 17 5 13 27 0 4 5 6 11 5 7 -2 12
5 12 14 -1 10 2 16 6 13 9 -6 43 43 43 62 0 7 3 11 5 8 8 -8 62 77 56 87 -3 5
0 7 8 6 7 -2 12 5 12 14 -1 10 3 16 10 15 6 -1 10 6 10 15 -1 10 3 16 10 15 6
-1 10 6 10 15 -1 10 3 16 10 15 6 -1 10 6 10 15 -1 10 3 16 10 15 6 -1 10 6
10 15 -1 10 3 16 10 15 6 -1 10 6 9 16 0 10 2 16 5 13 9 -9 62 76 55 88 -3 6
-3 8 2 4 11 -10 58 59 50 72 -4 6 -1 9 7 8 7 -2 12 5 11 15 0 10 2 16 5 13 9
-10 53 63 46 76 -4 7 -3 8 4 4 11 -7 17 7 12 29 -1 6 2 7 6 3 11 -11 36 30 28
45 -4 6 -4 9 1 5 12 -11 58 60 49 75 -4 6 -4 9 1 5 12 -11 38 29 29 45 -4 6
-4 9 1 5 12 -11 58 60 49 75 -4 6 -4 9 1 5 11 -11 38 29 29 44 -4 6 -3 8 3 5
12 -8 75 101 66 115 -3 6 -2 8 4 5 12 -8 75 101 66 115 -3 6 -2 8 4 5 13 -8
46 50 37 65 -4 6 -3 8 3 5 13 -8 96 140 87 155 -4 6 -3 8 2 5 13 -8 127 200
118 216 -4 6 -3 9 1 4 11 -10 96 143 90 161 -3 7 -1 11 4 8 13 -8 265 500 256
515 -6 8 -4 10 5 4 10 -6 12 -4 7 9 -4 9 -3 15 2 12 11 -7 83 153 74 166 -3 6
-1 8 4 5 13 -8 56 89 47 105 -4 6 -3 8 3 5 13 -8 56 89 47 105 -4 6 -3 8 3 5
13 -8 46 70 37 85 -4 6 -3 8 3 5 13 -8 127 258 117 274 -4 7 -3 9 3 6 13 -8
56 100 46 115 -3 6 -1 8 5 4 13 -8 26 29 16 45 -4 7 -3 9 3 6 13 -8 67 128 57
144 -4 7 -3 9 4 5 13 -8 26 29 16 45 -4 7 -3 9 4 5 13 -8 26 29 16 45 -4 7 -3
9 3 6 12 -8 37 59 27 74 -4 7 -3 9 4 5 13 -8 36 59 26 75 -4 7 -3 9 4 5 13 -8
36 59 26 75 -4 7 -3 9 4 5 13 -8 36 59 26 75 -4 7 -3 9 3 6 12 -8 47 88 37
104 -5 8 -3 9 6 4 10 -6 12 -3 7 14 -3 13 -3 20 1 17 8 -9 54 115 47 132 -3 8
0 10 7 6 7 -5 9 0 6 14 -4 14 -2 20 5 15 6 -4 8 2 5 15 -4 14 -2 20 5 15 6 -4
8 2 5 15 -4 14 -2 20 5 15 6 -4 8 2 5 15 -4 14 -2 20 5 15 6 -4 8 2 5 15 -4
14 -2 20 5 15 6 -4 8 2 5 15 -4 14 -2 20 5 15 6 -4 8 2 5 15 -4 14 -2 20 5 15
6 -4 8 2 5 15 -4 14 -2 20 5 15 6 -4 8 2 5 15 -4 14 -2 20 5 15 6 -4 8 2 5 15
-4 14 -2 20 5 15 6 -4 8 2 5 15 -4 12 -3 20 2 17 10 -6 43 112 34 127 -5 7 -3
8 6 3 10 -6 12 -3 8 13 -4 14 -2 20 5 15 6 -4 8 2 5 15 -4 12 -3 20 2 17 10
-6 32 83 24 97 -4 6 -3 8 3 5 13 -8 37 79 27 95 -4 6 -3 8 4 4 13 -8 27 48 16
65 -4 7 -3 9 4 5 13 -8 27 48 16 65 -4 7 -3 9 4 5 13 -8 27 48 16 65 -4 7 -3
9 4 5 13 -8 27 48 16 65 -4 7 -3 9 3 6 12 -8 26 50 16 66 -4 6 -1 7 7 2 10 -6
12 -1 8 18 -3 16 -1 24 5 20 6 -4 8 4 5 20 -3 15 -2 24 3 22 10 -7 22 52 13
66 -5 8 -3 9 6 4 10 -6 12 -1 8 18 -3 16 -1 24 5 20 6 -4 8 4 5 20 -3 16 -1
24 5 20 6 -4 8 4 5 20 -3 16 -1 24 5 20 6 -4 8 4 5 20 -3 16 -1 24 5 20 6 -4
8 4 5 20 -3 16 -1 24 5 20 6 -4 8 4 5 20 -3 16 -1 24 5 20 6 -4 8 4 5 20 -3
16 -1 24 5 20 6 -4 8 4 5 20 -3 16 -1 24 5 20 6 -4 8 4 5 20 -3 16 -1 24 5 20
6 -4 8 4 5 20 -3 15 -2 24 3 22 10 -7 22 71 13 86 -5 8 -3 9 6 4 10 -6 12 -1
8 18 -3 16 -1 24 5 20 6 -3 8 6 5 25 -3 18 0 29 5 25 6 -4 8 5 5 20 -3 16 -1
24 5 20 6 -3 8 6 5 25 -3 18 0 29 5 25 6 -4 8 5 5 20 -3 16 -1 24 5 20 6 -3 8
6 5 25 -3 19 0 29 5 25 6 -4 8 6 4 26 -5 23 -3 30 5 25 8 -5 9 3 5 27 -5 26
-4 30 4 19 8 -12 10 -8 7 17 -3 19 0 29 5 26 6 -3 8 7 5 25 -3 18 0 29 5 25 6
-3 8 7 5 25 -3 18 0 29 5 25 6 -3 8 7 5 25 -3 19 0 29 5 25 6 -4 8 9 4 33 -5
29 -4 35 4 24 8 -11 9 -5 5 23 -3 25 -1 35 6 31 7 -5 9 4 6 24 -3 19 0 29 5
25 6 -4 8 8 4 31 -4 25 -2 34 5 30 7 -5 9 4 6 24 -3 19 0 29 5 25 6 -4 8 8 4
31 -4 25 -2 34 5 30 8 -5 9 4 5 30 -4 25 -2 34 5 30 8 -5 9 5 5 32 -5 29 -4
35 4 24 8 -11 9 -3 5 29 -3 32 -2 41 5 30 8 -10 9 -2 6 29 -3 28 -2 40 6 35 7
-4 8 6 4 31 -4 25 -2 34 5 30 8 -5 9 6 5 34 -3 28 -2 40 6 35 7 -4 8 6 4 31
-4 25 -2 34 5 30 8 -5 9 6 5 34 -3 28 -2 40 5 35 8 -4 9 8 5 35 -3 28 -2 40 6
35 7 -4 8 9 4 43 -5 36 -4 45 4 34 8 -11 9 -3 5 33 -4 35 -3 46 6 41 8 -5 9 6
5 40 -5 34 -4 45 5 40 8 -5 9 6 5 40 -5 34 -4 45 5 40 8 -5 9 6 5 40 -5 34 -4
45 5 40 8 -5 9 7 5 45 -4 37 -3 50 5 45 8 -5 9 8 5 45 -4 37 -3 50 5 45 8 -5
9 10 4 52 -4 44 -3 55 5 44 8 -11 9 1 5 48 -4 40 -2 61 4 57 6 -4 10 10 10 34
0 69 -17 54 -24 -22z m-4386 -9910 c0 -2 -10 -12 -22 -23 l-23 -19 19 23 c18
21 26 27 26 19z m-120 -130 c0 -2 -12 -14 -27 -28 l-28 -24 24 28 c23 25 31
32 31 24z m-180 -190 c0 -1 -30 -32 -67 -67 l-68 -65 65 68 c60 62 70 72 70
64z m-310 -310 c0 -1 -30 -32 -67 -67 l-68 -65 65 68 c60 62 70 72 70 64z
m-270 -260 c0 -2 -12 -14 -27 -28 l-28 -24 24 28 c23 25 31 32 31 24z m-140
-130 c0 -2 -10 -12 -22 -23 l-23 -19 19 23 c18 21 26 27 26 19z"/>
<path d="M14584 4622 c33 -34 64 -60 69 -59 5 1 11 -6 12 -16 4 -24 25 -48 36
-41 5 3 8 1 7 -4 -5 -15 63 -122 73 -116 5 3 6 -2 3 -10 -5 -14 28 -16 302
-16 l309 1 -225 80 c-245 86 -593 216 -625 231 -11 6 7 -17 39 -50z"/>
<path d="M18568 3613 c7 -3 16 -2 19 1 4 3 -2 6 -13 5 -11 0 -14 -3 -6 -6z"/>
<path d="M18638 3603 c7 -3 16 -2 19 1 4 3 -2 6 -13 5 -11 0 -14 -3 -6 -6z"/>
<path d="M18703 3593 c9 -2 23 -2 30 0 6 3 -1 5 -18 5 -16 0 -22 -2 -12 -5z"/>
<path d="M18773 3583 c9 -2 25 -2 35 0 9 3 1 5 -18 5 -19 0 -27 -2 -17 -5z"/>
<path d="M18843 3573 c9 -2 23 -2 30 0 6 3 -1 5 -18 5 -16 0 -22 -2 -12 -5z"/>
<path d="M18913 3563 c9 -2 25 -2 35 0 9 3 1 5 -18 5 -19 0 -27 -2 -17 -5z"/>
<path d="M18974 3559 c-3 -5 9 -9 25 -9 17 0 31 2 31 4 0 8 -51 13 -56 5z"/>
<path d="M19050 3550 c-11 -7 -4 -10 25 -9 31 0 36 2 20 9 -26 11 -28 11 -45
0z"/>
<path d="M19130 3540 c-11 -7 -5 -10 23 -10 23 0 36 4 32 10 -8 13 -35 13 -55
0z"/>
<path d="M19210 3530 c-11 -7 -6 -10 22 -10 20 0 40 5 43 10 8 13 -45 13 -65
0z"/>
</g>
</svg>
